<svg xmlns="http://www.w3.org/2000/svg" width="127.998" height="129.993" viewBox="0 0 1219.031 1238.031">
  <metadata><?xpacket begin="﻿" id="W5M0MpCehiHzreSzNTczkc9d"?>
<x:xmpmeta xmlns:x="adobe:ns:meta/" x:xmptk="Adobe XMP Core 5.6-c142 79.160924, 2017/07/13-01:06:39        ">
   <rdf:RDF xmlns:rdf="http://www.w3.org/1999/02/22-rdf-syntax-ns#">
      <rdf:Description rdf:about=""/>
   </rdf:RDF>
</x:xmpmeta>
                                                                                                    
                                                                                                    
                                                                                                    
                                                                                                    
                                                                                                    
                                                                                                    
                                                                                                    
                                                                                                    
                                                                                                    
                                                                                                    
                                                                                                    
                                                                                                    
                                                                                                    
                                                                                                    
                                                                                                    
                                                                                                    
                                                                                                    
                                                                                                    
                                                                                                    
                                                                                                    
                           
<?xpacket end="w"?></metadata>
<defs>
    <style>
      .cls-1 {
        fill: #fff;
        fill-rule: evenodd;
      }
    </style>
  </defs>
  <path id="Muoto_1" data-name="Muoto 1" class="cls-1" d="M339.619,262.572c41.015-42.989,35.867-72.588,16.591-110.213s-1.139-66.3,40.989-81.928S596.31,4.138,656.8,28.492c32.661,13.15,28.3,42.99,28.3,65.347s19.612,60.594,50.748,72.175,77.639,7.229,119.065-60.471c20.316-33.2,36.887-35.984,99.545,4.877s106.381,84.854,106.381,84.854v39.013S815.508,477.028,808.069,485.922s-39.488,33.5-76.123,2.926-67.361-27.309-93.69-27.309c-76.062,0-185.428,65.439-185.428,182.387,0,89.173,91.292,178.486,169.813,178.486,101.925,0,111.382-40.964,148.342-40.964,22.374,0,29.9.619,40.014,15.605S1045.22,1033.08,1045.22,1033.08s28.5,45.82,2.93,71.2c-26.64,26.44-100.806,77.49-120.041,84.86s-46.008,22.3-61.484,7.8c-30.117-28.22-51.2-99.1-114.185-79s-70.267,71.69-70.267,114.11c0,0-4.53,41.43-108.329,23.41s-180.786-37.63-205.923-61.45-17.284-52.33,0-84.85-6.6-67.98-28.3-80.95-62.4-38.818-125.9,13.65c-42.082,34.77-80.545-52.537-88.81-63.395C107.279,955.3,46.809,840.987,39.03,790.226c-7.341-47.9,24.654-69.4,59.532-73.15,27.733-2.981,54.758-51.716,56.6-77.051s-16.958-63.74-85.883-81.928c-29.292-7.73-42.406-31.416-14.639-104.361S131.7,252.613,189.324,239.164C221.375,231.683,267.7,312.464,339.619,262.572Zm788.561,20.481c0-32.366-13.4-65.614-76.13-2.926S851.579,488.28,825.636,514.207s-21.816,48.741-8.784,73.15,13.284,94.687-8.783,126.793c-11.828,24.8,2.564,41.576,26.35,65.347S1090.11,1036.98,1090.11,1036.98s33.57,6.61,38.07-21.45,2.79-43.166-11.71-54.621-77.71-44.767-35.14-118.015c26.48-45.473,85.82-37.9,95.64-32.186s48.78,16.672,58.56-16.581,21.46-98.068,21.47-154.1-11.06-136-38.06-165.807c-13.13-14.486-61.59,5.236-73.2,4.877s-50.42-18.239-68.31-51.693-7.94-60.232,9.76-81.927,40.39-30.987,42.94-35.112S1128.18,315.42,1128.18,283.053ZM1074.5,716.1v25.359H932.013l0.976-19.507s65.388-62.421,75.151-73.149,21.47-27.31,21.47-56.57-19.52-39.988-35.137-39.013-31.23,0-39.038,9.754c-4.761,5.948-21.47-6.828-16.591-13.655s30.254-22.433,57.581-22.433,73.195,22.433,73.195,55.594-15.61,51.693-33.18,69.249-45.871,40.964-45.871,40.964V714.15Z" transform="translate(-37.969 -21.969)"/>
</svg>
