<svg xmlns="http://www.w3.org/2000/svg" width="840" height="840" viewBox="0 0 409.516 409.516">
  <metadata><?xpacket begin="﻿" id="W5M0MpCehiHzreSzNTczkc9d"?>
<x:xmpmeta xmlns:x="adobe:ns:meta/" x:xmptk="Adobe XMP Core 5.6-c140 79.160451, 2017/05/06-01:08:21        ">
   <rdf:RDF xmlns:rdf="http://www.w3.org/1999/02/22-rdf-syntax-ns#">
      <rdf:Description rdf:about=""/>
   </rdf:RDF>
</x:xmpmeta>
                                                                                                    
                                                                                                    
                                                                                                    
                                                                                                    
                                                                                                    
                                                                                                    
                                                                                                    
                                                                                                    
                                                                                                    
                                                                                                    
                                                                                                    
                                                                                                    
                                                                                                    
                                                                                                    
                                                                                                    
                                                                                                    
                                                                                                    
                                                                                                    
                                                                                                    
                                                                                                    
                           
<?xpacket end="w"?></metadata>
<defs>
    <style>
      .cls-1 {
        fill: #000;
        fill-rule: evenodd;
      }
    </style>
  </defs>
  <path id="Muoto_3" data-name="Muoto 3" class="cls-1" d="M215.146,324.468a4.771,4.771,0,0,0-5,4.993V496.23s-0.714,1,1,2,124.933,60.916,126.931,61.915a7.563,7.563,0,0,0,7,0c4.29-2.27,124.933-61.487,125.932-61.915s1.856-.57,2-2.995,0-160.921,0-165.771-4.569-5.992-7-5.992H451.019L486,288.517S380.311,181.868,370.062,173.676c-6.425-5.136-17.562-2-22.987,2-9.888,7.28-120.935,118.836-120.935,118.836s-7.568,9.844-8,13.981a44.772,44.772,0,0,0,0,9.986c0.286,1.426,3.427,5.706,2,5.992S218.715,324.468,215.146,324.468Zm9.994,57.919-1,106.853s28.7,14.837,29.984,14.979,2-.142,2-2V382.387H225.14Zm44.976,0V510.211s63.391,30.413,65.965,31.956c3.569,2.14,5.568,1.854,9,0s111.939-51.928,111.939-51.928V382.387h-186.9Zm137.926-14.979c1.713-1.712,26.7-28.1,27.985-28.96s0.714-1,3-1h17.99v28.96c0,1.712,0,2.853-2,2.995s-44.976,0-46.975,0S406.329,369.12,408.042,367.408Zm-182.9,2h35.981s2-.285,1-1-25.843-25.394-27.985-27.962-3.286-3.2-7-3c-2.57.142-2,2.71-2,5.991v25.964Zm87.953,0H287.107l-50.973-50.929s-3.284-5.279,2-9.986a12.165,12.165,0,0,1,10.994-3Zm-52.972-83.884c-2.855,2.854-3.283,3.71-1,5.992s78.957,77.892,78.957,77.892h42.977s75.817-76.751,77.958-78.89,0.429-3.567-1-4.994l-92.95-92.871a8.98,8.98,0,0,0-7-3,7.71,7.71,0,0,0-6,3S262.977,282.668,260.121,285.521Zm32.983,4c-2.285,2.14-2,2.71,1,5.992s9.852,9.843,10.994,10.984,2.285,1.712,4,0l18.99-18.973c1.856-1.855,2.57-1.427,4,0l22.987,22.968s25.178,28.859,50.973,4.993c25.929-23.99-7-52.927-7-52.927s-34.553-33.525-36.98-35.95-3.713-1.284-5,0S295.388,287.376,293.1,289.516Zm52.971-19.973c-1.856,1.855-2.142,2.854,0,4.994s19.989,20.971,19.989,20.971,10,11.27,19.99,2-1-20.971-1-20.971l-19.989-19.973c-2.284-2.282-3.712-2.14-6,0S347.931,267.689,346.075,269.543Z" transform="translate(-143.242 -161.242)"/>
</svg>
